<svg width="1690" height="511" viewBox="0 0 1690 511" fill="none" xmlns="http://www.w3.org/2000/svg">
<path d="M647.896 210.014H623.416V202.814H681.304V210.014H655.96V303.614H647.896V210.014ZM734.379 254.222C734.379 248.366 732.651 244.142 729.195 241.55C725.835 238.862 721.467 237.518 716.091 237.518C712.827 237.518 709.515 237.998 706.155 238.958C702.795 239.822 699.819 240.974 697.227 242.414V303.614H689.163V202.814H697.227V235.358C699.627 233.726 702.507 232.478 705.867 231.614C709.227 230.654 712.731 230.174 716.379 230.174C721.371 230.174 725.931 231.086 730.059 232.91C733.899 234.638 736.875 237.23 738.987 240.686C741.195 244.142 742.299 248.51 742.299 253.79V303.614H734.379V254.222ZM804.242 298.574C800.786 300.782 796.85 302.462 792.434 303.614C788.018 304.766 783.602 305.342 779.186 305.342C772.082 305.342 766.418 303.614 762.194 300.158C758.066 296.606 756.002 291.326 756.002 284.318V254.798C756.002 247.022 758.402 240.974 763.202 236.654C768.098 232.334 774.53 230.174 782.498 230.174C790.466 230.174 796.658 232.334 801.074 236.654C805.586 240.878 807.842 246.782 807.842 254.366V273.086L764.066 275.534V284.318C764.066 288.926 765.554 292.382 768.53 294.686C771.506 296.99 775.394 298.142 780.194 298.142C786.914 298.142 793.874 296.222 801.074 292.382L804.242 298.574ZM799.778 253.358C799.778 247.406 797.906 243.23 794.162 240.83C790.418 238.334 786.482 237.086 782.354 237.086C777.074 237.086 772.706 238.526 769.25 241.406C765.794 244.286 764.066 248.798 764.066 254.942V267.614L799.778 265.886V253.358Z" fill="#818181"/>
<path d="M864.71 202.814H898.406C908.102 202.814 915.302 205.886 920.006 212.03C924.806 218.174 927.206 226.094 927.206 235.79C927.206 245.678 925.43 254.366 921.878 261.854C918.422 269.342 911.03 273.086 899.702 273.086H877.814V303.614H864.71V202.814ZM896.534 260.414C902.006 260.414 906.038 259.118 908.63 256.526C911.222 253.838 912.758 250.91 913.238 247.742C913.814 244.478 914.102 240.542 914.102 235.934C914.102 228.446 912.566 223.214 909.494 220.238C906.422 217.262 901.91 215.774 895.958 215.774H877.814V260.414H896.534ZM951.085 215.774C949.165 215.774 947.437 215.054 945.901 213.614C944.461 212.078 943.741 210.35 943.741 208.43C943.741 206.606 944.461 204.974 945.901 203.534C947.437 202.094 949.165 201.374 951.085 201.374C953.005 201.374 954.637 202.094 955.981 203.534C957.421 204.878 958.141 206.51 958.141 208.43C958.141 210.35 957.421 212.078 955.981 213.614C954.541 215.054 952.909 215.774 951.085 215.774ZM944.173 231.47H957.277V303.614H944.173V231.47ZM980.866 291.374L1014.27 243.71H982.162V231.47H1031.7V243.422L998.146 291.374H1033.71V303.614H980.866V291.374ZM1050.34 291.374L1083.74 243.71H1051.63V231.47H1101.17V243.422L1067.62 291.374H1103.18V303.614H1050.34V291.374ZM1169.34 303.614C1158.97 304.67 1151.48 305.198 1146.88 305.198C1136.8 305.198 1128.78 303.326 1122.83 299.582C1116.88 295.838 1113.9 289.07 1113.9 279.278V267.326C1113.9 257.822 1117.21 251.438 1123.84 248.174C1127 246.638 1130.75 245.87 1135.07 245.87C1138.91 245.87 1142.8 246.446 1146.73 247.598C1150.67 248.75 1153.84 250.094 1156.24 251.63C1156.24 247.598 1154.7 244.574 1151.63 242.558C1148.56 240.542 1144.14 239.534 1138.38 239.534L1139.39 230.318C1148.6 230.318 1155.37 231.806 1159.69 234.782C1164.11 237.662 1166.8 241.118 1167.76 245.15C1168.81 249.182 1169.34 254.366 1169.34 260.702V303.614ZM1156.24 264.734C1153.74 263.294 1150.72 261.998 1147.16 260.846C1143.61 259.694 1140.3 259.118 1137.23 259.118C1130.41 259.118 1127 262.334 1127 268.766V278.27C1127 288.158 1133.34 293.102 1146.01 293.102C1149.08 293.102 1152.49 292.814 1156.24 292.238V264.734ZM1236.64 215.774H1214.6V202.814H1272.49V215.774H1249.74V303.614H1236.64V215.774ZM1320.38 257.534C1320.38 252.158 1319.04 248.318 1316.35 246.014C1313.76 243.614 1310.4 242.414 1306.27 242.414C1303.97 242.414 1301.66 242.75 1299.36 243.422C1297.05 243.998 1295.09 244.766 1293.45 245.726V303.614H1280.35V202.814H1293.45V233.198C1295.09 232.334 1297.15 231.614 1299.65 231.038C1302.24 230.462 1304.93 230.174 1307.71 230.174C1312.8 230.174 1317.31 231.086 1321.25 232.91C1325.09 234.638 1328.06 237.23 1330.17 240.686C1332.38 244.142 1333.49 248.51 1333.49 253.79V303.614H1320.38V257.534ZM1395.43 298.574C1391.97 300.782 1388.04 302.462 1383.62 303.614C1379.21 304.766 1374.79 305.342 1370.37 305.342C1363.27 305.342 1357.61 303.614 1353.38 300.158C1349.25 296.606 1347.19 291.326 1347.19 284.318V254.798C1347.19 247.022 1349.59 240.974 1354.39 236.654C1359.29 232.334 1365.72 230.174 1373.69 230.174C1381.65 230.174 1387.85 232.334 1392.26 236.654C1396.77 240.878 1399.03 246.782 1399.03 254.366V275.102L1360.44 277.262V282.878C1360.44 286.238 1361.4 288.83 1363.32 290.654C1365.33 292.382 1368.12 293.246 1371.67 293.246C1376.95 293.246 1383.24 291.326 1390.53 287.486L1395.43 298.574ZM1385.78 254.222C1385.78 250.286 1384.53 247.406 1382.04 245.582C1379.54 243.662 1376.71 242.702 1373.54 242.702C1369.41 242.702 1366.2 243.854 1363.89 246.158C1361.59 248.366 1360.44 251.294 1360.44 254.942V265.022L1385.78 263.582V254.222ZM1469.53 277.118C1469.53 285.182 1467.32 291.854 1462.91 297.134C1458.49 302.414 1451.82 305.054 1442.89 305.054C1433.96 305.054 1427.2 302.414 1422.59 297.134C1418.08 291.758 1415.82 285.086 1415.82 277.118V258.11C1415.82 248.99 1418.12 242.03 1422.73 237.23C1427.44 232.334 1434.16 229.886 1442.89 229.886C1451.24 229.886 1457.77 232.43 1462.48 237.518C1467.18 242.51 1469.53 249.374 1469.53 258.11V277.118ZM1456.57 258.11C1456.57 247.934 1452.01 242.846 1442.89 242.846C1438.76 242.846 1435.4 243.998 1432.81 246.302C1430.22 248.606 1428.92 252.542 1428.92 258.11V278.558C1428.92 283.07 1430.22 286.526 1432.81 288.926C1435.4 291.23 1438.76 292.382 1442.89 292.382C1447.02 292.382 1450.33 291.182 1452.83 288.782C1455.32 286.382 1456.57 282.974 1456.57 278.558V258.11ZM1483.68 231.47H1496.07L1496.64 233.63C1500.77 231.422 1505.33 230.318 1510.32 230.318C1513.78 230.318 1517.81 230.846 1522.42 231.902L1519.25 244.43C1516.66 243.278 1513.88 242.702 1510.9 242.702C1506.96 242.702 1503.6 243.71 1500.82 245.726C1498.13 247.646 1496.79 250.334 1496.79 253.79V303.614H1483.68V231.47ZM1559.71 323.486C1562.5 323.006 1564.8 321.806 1566.63 319.886C1568.45 318.062 1569.36 315.422 1569.36 311.966V301.022C1566.29 303.902 1561.39 305.342 1554.67 305.342C1546.23 305.342 1539.7 303.086 1535.09 298.574C1530.58 293.966 1528.32 287.198 1528.32 278.27V231.47H1541.28V275.966C1541.28 282.014 1542.39 286.286 1544.59 288.782C1546.8 291.278 1550.16 292.526 1554.67 292.526C1559.47 292.526 1563.12 291.326 1565.62 288.926C1568.11 286.43 1569.36 282.11 1569.36 275.966V251.342C1569.36 246.062 1570.66 241.454 1573.25 237.518C1575.94 233.486 1579.87 231.038 1585.06 230.174L1589.67 240.542C1587.17 241.214 1585.3 242.51 1584.05 244.43C1582.9 246.254 1582.32 248.414 1582.32 250.91V312.398C1582.32 318.542 1580.98 323.342 1578.29 326.798C1575.6 330.35 1570.99 332.702 1564.47 333.854L1559.71 323.486Z" fill="#E67C00"/>
<path d="M427.105 202.538C437.288 199.757 448.021 205.355 450.245 215.674C456.848 246.304 454.204 278.076 442.399 307.67C428.25 343.139 401.694 373.596 366.661 394.529C331.629 415.463 289.983 425.761 247.889 423.9C205.795 422.038 165.491 408.115 132.943 384.193C100.396 360.27 77.336 327.62 67.1771 291.075C57.0182 254.531 60.3005 216.035 76.5381 181.287C92.7757 146.539 121.105 117.386 157.333 98.1443C187.672 82.0303 222.2 73.5849 257.246 73.5305C268.472 73.513 276.626 83.6312 275.341 94.7832L260.973 219.451C259.353 233.514 272.454 244.763 286.11 241.035L427.105 202.538Z" fill="#FFE665"/>
<path fill-rule="evenodd" clip-rule="evenodd" d="M233.456 61.0477C224.311 62.5979 213.704 64.3959 211.408 53.2902C210.749 50.1014 212.562 46.137 214.684 42.0755C220.282 34.6602 225.874 18.1921 203.455 11.6421C193.134 8.62669 184.389 10.6439 180.499 11.9159C176.486 13.1567 168.354 16.5277 161.736 24.7308C147.064 42.9153 161.048 53.243 169.874 56.1338C173.933 58.2562 177.684 60.4753 178.961 63.4702C183.41 73.9007 173.676 78.4835 165.283 82.4346C164.036 83.0214 162.819 83.5942 161.683 84.1702L165.072 94.9915L205.253 82.3875L205.253 82.3855L240.791 71.2379L237.402 60.4165C236.14 60.5927 234.814 60.8175 233.456 61.0477Z" fill="#E67C00"/>
<path fill-rule="evenodd" clip-rule="evenodd" d="M140.895 411.617C148.612 416.766 157.563 422.738 151.622 432.396C149.916 435.169 145.879 436.809 141.551 438.308C132.394 439.861 117.038 448.008 128.862 468.162C134.411 477.621 142.354 482.149 145.966 483.818C149.826 485.679 157.944 488.669 168.193 487.269C191.334 484.106 188.237 466.992 183.796 458.831C182.297 454.5 181.089 450.311 182.212 447.255C186.124 436.611 196.349 439.957 205.165 442.843C206.474 443.271 207.752 443.69 208.974 444.051L213.925 433.85L176.047 415.442L176.044 415.448L142.543 399.167L137.592 409.368C138.63 410.106 139.749 410.853 140.895 411.617Z" fill="#E67C00"/>
<path fill-rule="evenodd" clip-rule="evenodd" d="M69.7262 202.719C67.5835 211.746 65.0984 222.216 53.9813 219.998C50.7892 219.361 47.8484 216.144 44.9389 212.604C40.2994 204.556 27.3257 192.981 12.5474 211.071C5.72062 219.428 4.17682 228.301 3.83595 232.362C3.41461 236.554 3.35612 245.337 8.30974 254.609C19.3191 275.216 34.2819 266.368 40.3872 259.367C43.9249 256.457 47.4309 253.869 50.6858 253.861C62.0217 253.834 62.4399 264.587 62.8004 273.858C62.8539 275.235 62.9062 276.579 62.9928 277.85L74.2748 278.951L78.3578 237.029L78.3551 237.028L81.9673 199.94L70.6853 198.839C70.355 200.07 70.0444 201.379 69.7262 202.719Z" fill="#E67C00"/>
<path d="M231.317 170.715C231.317 202.986 205.17 229.148 172.915 229.148C140.661 229.148 114.514 202.986 114.514 170.715C114.514 138.443 140.661 112.282 172.915 112.282C205.17 112.282 231.317 138.443 231.317 170.715Z" fill="#E52D2D" fill-opacity="0.5"/>
<path d="M295.444 343.722C295.444 381.689 265.195 412.466 227.881 412.466C190.567 412.466 160.318 381.689 160.318 343.722C160.318 305.756 190.567 274.978 227.881 274.978C265.195 274.978 295.444 305.756 295.444 343.722Z" fill="#E52D2D" fill-opacity="0.5"/>
<ellipse cx="358.426" cy="280.706" rx="30.9186" ry="30.935" fill="#E52D2D" fill-opacity="0.5"/>
<path fill-rule="evenodd" clip-rule="evenodd" d="M369.144 409.246C376.59 403.714 385.225 397.297 392.31 406.151C394.344 408.693 394.527 413.049 394.478 417.631C392.854 426.779 395.344 443.991 418.292 439.652C429.1 437.608 436.048 431.62 438.816 428.792C441.874 425.772 447.398 419.143 449.528 409.046C454.351 386.183 437.205 383.328 428.029 384.758C423.449 384.709 419.101 384.434 416.604 382.345C407.907 375.07 414.502 366.568 420.188 359.238C421.033 358.15 421.857 357.087 422.608 356.058L414.679 347.954L384.594 377.423L384.598 377.427L357.985 403.495L365.915 411.599C366.959 410.869 368.038 410.067 369.144 409.246Z" fill="#E67C00"/>
<path fill-rule="evenodd" clip-rule="evenodd" d="M126.943 108.494C120.325 114.993 112.65 122.532 104.42 114.732C102.056 112.492 101.279 108.203 100.699 103.657C101.055 94.3727 96.2324 77.6641 74.0953 85.105C63.6645 88.6111 57.6011 95.4992 55.2485 98.677C52.6332 102.087 48.0689 109.41 47.3417 119.704C45.6951 143.011 63.0704 143.492 71.9639 140.818C76.5073 140.239 80.8524 139.916 83.6119 141.644C93.2226 147.659 87.8542 156.984 83.2256 165.023C82.5383 166.217 81.8672 167.383 81.264 168.505L90.2285 175.447L115.994 142.136L115.989 142.132L138.784 112.662L129.819 105.72C128.885 106.586 127.925 107.528 126.943 108.494Z" fill="#E67C00"/>
<path fill-rule="evenodd" clip-rule="evenodd" d="M255.145 448.485C264.415 448.186 275.167 447.84 275.941 459.155C276.164 462.404 273.831 466.086 271.18 469.824C264.631 476.413 256.866 491.974 278.192 501.498C288.009 505.882 296.945 505.067 300.972 504.334C305.114 503.648 313.63 501.409 321.298 494.175C338.292 478.142 325.832 466.017 317.479 461.958C313.744 459.306 310.328 456.599 309.467 453.459C306.468 442.522 316.733 439.299 325.582 436.52C326.896 436.107 328.179 435.704 329.383 435.287L327.488 424.106L285.974 431.157L285.974 431.159L249.255 437.395L251.151 448.576C252.424 448.572 253.768 448.529 255.145 448.485Z" fill="#E67C00"/>
<path fill-rule="evenodd" clip-rule="evenodd" d="M73.3525 315.724C76.7502 324.356 80.691 334.369 70.3014 338.907C67.3182 340.21 63.0678 339.252 58.6587 338.012C50.2544 334.062 32.9973 331.985 31.2034 355.281C30.356 366.285 34.3494 374.572 36.3504 377.964C38.4751 381.71 43.4301 388.752 52.5992 393.429C73.4032 404.041 80.6272 388.222 81.6387 378.986C82.8794 374.575 84.2783 370.446 86.9447 368.578C96.2308 362.072 102.716 370.656 108.307 378.057C109.137 379.156 109.948 380.229 110.745 381.223L120.632 375.673L100.037 338.94L100.031 338.943L81.81 306.442L71.9234 311.992C72.3553 313.191 72.8479 314.442 73.3525 315.724Z" fill="#E67C00"/>
<path fill-rule="evenodd" clip-rule="evenodd" d="M437.266 320.584C439.802 311.66 442.743 301.309 453.753 304.013C456.914 304.79 459.711 308.133 462.463 311.796C466.745 320.041 479.199 332.173 494.756 314.749C501.905 306.743 503.853 297.997 504.384 293.927C504.993 289.783 505.465 280.969 500.898 271.44C490.802 250.37 475.466 258.554 469.06 265.279C465.398 268.031 461.782 270.463 458.53 270.328C447.203 269.858 447.257 259.097 447.303 249.819C447.309 248.441 447.316 247.096 447.285 245.822L436.062 244.227L430.147 285.929L430.148 285.929L424.915 322.823L436.138 324.418C436.522 323.203 436.889 321.909 437.266 320.584Z" fill="#E67C00"/>
<path d="M424.391 201.274C435.577 197.733 447.637 203.924 449.945 215.427C456.822 249.691 454.455 285.31 442.896 318.561C429.003 358.527 402.574 392.932 367.548 416.647C332.522 440.363 290.775 452.12 248.527 450.165C206.28 448.211 165.795 432.65 133.105 405.802C100.416 378.954 77.2726 342.256 67.1242 301.178C56.9759 260.099 60.366 216.839 76.7893 177.845C93.2126 138.851 121.79 106.211 158.262 84.7885C188.602 66.9679 223.054 57.704 257.979 57.7738C269.714 57.7973 278.137 68.4211 276.846 80.085V80.085C275.555 91.7507 265.023 100.005 253.29 100.334C227.51 101.055 202.203 108.261 179.767 121.44C151.191 138.224 128.801 163.798 115.933 194.349C103.066 224.901 100.41 258.795 108.361 290.98C116.312 323.164 134.445 351.917 160.057 372.952C185.669 393.988 217.389 406.179 250.489 407.71C283.59 409.242 316.299 400.03 343.741 381.449C371.184 362.868 391.891 335.912 402.776 304.599C411.326 280.003 413.457 253.753 409.134 228.304C407.17 216.742 413.21 204.813 424.391 201.274V201.274Z" fill="#E67C00"/>
</svg>
